<svg width="32" height="32" viewBox="0 0 32 32" fill="none" xmlns="http://www.w3.org/2000/svg">
<g clip-path="url(#clip0_2125_45)">
<path d="M9.33331 6.66679C9.33331 5.95954 9.61426 5.28127 10.1144 4.78117C10.6145 4.28107 11.2927 4.00012 12 4.00012H25.3333C26.0406 4.00012 26.7188 4.28107 27.2189 4.78117C27.719 5.28127 28 5.95954 28 6.66679V20.0001C28 20.7074 27.719 21.3856 27.2189 21.8857C26.7188 22.3858 26.0406 22.6668 25.3333 22.6668H12C11.2927 22.6668 10.6145 22.3858 10.1144 21.8857C9.61426 21.3856 9.33331 20.7074 9.33331 20.0001V6.66679Z" stroke="#030911" stroke-width="1.5" stroke-linecap="round" stroke-linejoin="round"/>
<path d="M22.6667 22.6668V25.3335C22.6667 26.0407 22.3857 26.719 21.8856 27.2191C21.3855 27.7192 20.7072 28.0002 20 28.0002H6.66667C5.95942 28.0002 5.28115 27.7192 4.78105 27.2191C4.28095 26.719 4 26.0407 4 25.3335V12.0002C4 11.2929 4.28095 10.6146 4.78105 10.1145C5.28115 9.61445 5.95942 9.3335 6.66667 9.3335H9.33333" stroke="#030911" stroke-width="1.5" stroke-linecap="round" stroke-linejoin="round"/>
<path d="M16 10.6668C16 9.95954 16.281 9.28127 16.781 8.78117C17.2811 8.28107 17.9594 8.00012 18.6667 8.00012C19.3739 8.00012 20.0522 8.28107 20.5523 8.78117C21.0524 9.28127 21.3333 9.95954 21.3333 10.6668C21.3333 11.4548 20.7773 12.4241 20.2453 13.1441L16 18.6681H21.3333" stroke="#030911" stroke-width="1.5" stroke-linecap="round" stroke-linejoin="round"/>
</g>
<defs>
<clipPath id="clip0_2125_45">
<rect width="32" height="32" fill="white"/>
</clipPath>
</defs>
</svg>
