<svg width="28" height="28" viewBox="0 0 28 28" fill="none" xmlns="http://www.w3.org/2000/svg">
<circle opacity="0.15" cx="14" cy="14" r="14" fill="#F7941E"/>
<path d="M10.25 8V20H17.75V8H10.25ZM9.5 6.5H18.5C18.9142 6.5 19.25 6.83579 19.25 7.25V20.75C19.25 21.1642 18.9142 21.5 18.5 21.5H9.5C9.08579 21.5 8.75 21.1642 8.75 20.75V7.25C8.75 6.83579 9.08579 6.5 9.5 6.5ZM14 17.75C14.4142 17.75 14.75 18.0858 14.75 18.5C14.75 18.9142 14.4142 19.25 14 19.25C13.5858 19.25 13.25 18.9142 13.25 18.5C13.25 18.0858 13.5858 17.75 14 17.75Z" fill="#F7941E"/>
</svg>
