<svg width="32" height="32" viewBox="0 0 32 32" fill="none" xmlns="http://www.w3.org/2000/svg">
<g clip-path="url(#clip0_2101_196)">
<path d="M9.33334 6.66679C9.33334 5.95954 9.61429 5.28127 10.1144 4.78117C10.6145 4.28107 11.2928 4.00012 12 4.00012H25.3333C26.0406 4.00012 26.7189 4.28107 27.219 4.78117C27.7191 5.28127 28 5.95954 28 6.66679V20.0001C28 20.7074 27.7191 21.3856 27.219 21.8857C26.7189 22.3858 26.0406 22.6668 25.3333 22.6668H12C11.2928 22.6668 10.6145 22.3858 10.1144 21.8857C9.61429 21.3856 9.33334 20.7074 9.33334 20.0001V6.66679Z" stroke="#030911" stroke-width="1.5" stroke-linecap="round" stroke-linejoin="round"/>
<path d="M22.6667 22.6668V25.3335C22.6667 26.0407 22.3857 26.719 21.8856 27.2191C21.3855 27.7192 20.7072 28.0002 20 28.0002H6.66667C5.95942 28.0002 5.28115 27.7192 4.78105 27.2191C4.28095 26.719 4 26.0407 4 25.3335V12.0002C4 11.2929 4.28095 10.6146 4.78105 10.1145C5.28115 9.61445 5.95942 9.3335 6.66667 9.3335H9.33333" stroke="#030911" stroke-width="1.5" stroke-linecap="round" stroke-linejoin="round"/>
<path d="M18.6667 13.3335C19.1941 13.3335 19.7097 13.1771 20.1482 12.884C20.5867 12.591 20.9285 12.1745 21.1303 11.6873C21.3322 11.2 21.385 10.6638 21.2821 10.1465C21.1792 9.62927 20.9252 9.15411 20.5523 8.78117C20.1793 8.40823 19.7042 8.15426 19.1869 8.05136C18.6696 7.94847 18.1334 8.00128 17.6462 8.20311C17.1589 8.40494 16.7424 8.74674 16.4494 9.18527C16.1564 9.6238 16 10.1394 16 10.6668" stroke="#030911" stroke-width="1.5" stroke-linecap="round" stroke-linejoin="round"/>
<path d="M16 16.0002C16 16.5276 16.1564 17.0432 16.4494 17.4817C16.7424 17.9202 17.1589 18.262 17.6462 18.4638C18.1334 18.6657 18.6696 18.7185 19.1869 18.6156C19.7042 18.5127 20.1793 18.2587 20.5523 17.8858C20.9252 17.5128 21.1792 17.0377 21.2821 16.5204C21.385 16.0031 21.3322 15.4669 21.1303 14.9797C20.9285 14.4924 20.5867 14.0759 20.1482 13.7829C19.7097 13.4899 19.1941 13.3335 18.6667 13.3335" stroke="#030911" stroke-width="1.5" stroke-linecap="round" stroke-linejoin="round"/>
</g>
<defs>
<clipPath id="clip0_2101_196">
<rect width="32" height="32" fill="white"/>
</clipPath>
</defs>
</svg>
